<?xml version="1.0" encoding="iso-8859-1"?>
<!-- Generator: Adobe Illustrator 18.0.0, SVG Export Plug-In . SVG Version: 6.00 Build 0)  -->
<!DOCTYPE svg PUBLIC "-//W3C//DTD SVG 1.1//EN" "http://www.w3.org/Graphics/SVG/1.1/DTD/svg11.dtd">
<svg version="1.1" id="Capa_1" xmlns="http://www.w3.org/2000/svg" xmlns:xlink="http://www.w3.org/1999/xlink" x="0px" y="0px"
	 viewBox="0 0 461.991 461.991" style="enable-background:new 0 0 461.991 461.991;" xml:space="preserve">
<path d="M454.491,189.269h-76.333l16.466-6.998c9.06-3.851,15.589-11.919,17.466-21.583c1.876-9.665-1.159-19.59-8.121-26.552
	s-16.888-9.996-26.552-8.121c-9.664,1.876-17.732,8.406-21.583,17.466l-14.498,34.113l-14.498-34.113
	c-3.851-9.06-11.919-15.589-21.583-17.466c-9.665-1.877-19.589,1.159-26.551,8.121c-6.961,6.961-9.998,16.887-8.121,26.552
	c1.876,9.664,8.406,17.733,17.466,21.583l16.466,6.998h-76.333c-4.142,0-7.5,3.358-7.5,7.5v46.299c0,4.142,3.358,7.5,7.5,7.5h12.667
	v18.918h-60.036v-95.96h8.718c4.142,0,7.5-3.358,7.5-7.5v-64.651c0-4.142-3.358-7.5-7.5-7.5h-54.194l26.733-11.361
	c10.439-4.437,17.962-13.733,20.124-24.868c2.162-11.135-1.336-22.572-9.357-30.592c-8.021-8.021-19.458-11.52-30.592-9.356
	c-11.135,2.162-20.432,9.685-24.868,20.124l-18.861,44.38l-18.861-44.38c-4.437-10.439-13.733-17.962-24.868-20.124
	c-11.138-2.164-22.572,1.336-30.593,9.356c-8.021,8.021-11.519,19.458-9.356,30.593C17,68.781,24.522,78.078,34.961,82.514
	l26.733,11.361H7.5c-4.142,0-7.5,3.358-7.5,7.5v64.651c0,4.142,3.358,7.5,7.5,7.5h8.718v263.895c0,4.142,3.358,7.5,7.5,7.5h125.746
	h23.849h75.036h50.71h135.264c4.142,0,7.5-3.358,7.5-7.5V250.568h12.667c4.142,0,7.5-3.358,7.5-7.5v-46.299
	C461.991,192.627,458.633,189.269,454.491,189.269z M369.639,149.349c1.926-4.532,5.803-7.669,10.637-8.608
	c0.961-0.187,1.92-0.278,2.867-0.278c3.814,0,7.43,1.491,10.22,4.28c3.482,3.482,4.94,8.252,4.002,13.086
	c-0.938,4.834-4.076,8.711-8.608,10.637l-33.248,14.13L369.639,149.349z M285.308,157.829c-0.938-4.834,0.521-9.604,4.002-13.086
	c2.79-2.79,6.405-4.28,10.219-4.28c0.946,0,1.905,0.092,2.866,0.278c4.834,0.938,8.711,4.076,10.638,8.608l14.13,33.248
	l-33.248-14.13C289.384,166.54,286.246,162.663,285.308,157.829z M140.747,300.353v-15.866h167.031v15.866H140.747z M131.182,43.688
	c2.521-5.932,7.595-10.038,13.922-11.266c6.325-1.23,12.569,0.681,17.126,5.238c4.557,4.558,6.467,10.8,5.238,17.127
	c-1.229,6.327-5.335,11.401-11.266,13.922l-43.515,18.494L131.182,43.688z M29.563,54.787C28.334,48.46,30.243,42.218,34.8,37.66
	c3.651-3.651,8.384-5.603,13.375-5.603c1.238,0,2.494,0.121,3.751,0.365c6.327,1.228,11.401,5.334,13.922,11.266l18.494,43.515
	L40.829,68.709C34.897,66.188,30.791,61.114,29.563,54.787z M15,108.875h167.031v49.651H15V108.875z M31.218,173.527h134.595v95.96
	h-32.566c-4.142,0-7.5,3.358-7.5,7.5v30.866c0,4.142,3.358,7.5,7.5,7.5h8.718v114.569H31.218V173.527z M248.349,429.922h-75.036
	h-16.349V315.353H291.56v114.569H248.349z M426.824,429.922H306.56V315.353h8.718c4.142,0,7.5-3.358,7.5-7.5v-30.866
	c0-4.142-3.358-7.5-7.5-7.5h-59.428v-18.918h170.975V429.922z M446.991,235.568H235.682v-31.299h211.309V235.568z"/>
<g>
</g>
<g>
</g>
<g>
</g>
<g>
</g>
<g>
</g>
<g>
</g>
<g>
</g>
<g>
</g>
<g>
</g>
<g>
</g>
<g>
</g>
<g>
</g>
<g>
</g>
<g>
</g>
<g>
</g>
</svg>
